<svg width="227" height="49" viewBox="0 0 227 49" fill="none" xmlns="http://www.w3.org/2000/svg">
<path d="M14.352 5.224H13.776C10.928 5.224 8.704 5.944 7.104 7.384C5.536 8.792 4.752 11.304 4.752 14.92C4.752 16.104 4.864 16.936 5.088 17.416C5.312 17.864 5.424 18.12 5.424 18.184C3.696 18.184 2.4 17.832 1.536 17.128C0.704 16.392 0.288 15.192 0.288 13.528C0.288 11.256 0.848 9.192 1.968 7.336C3.088 5.448 4.864 3.928 7.296 2.776C9.76 1.624 12.88 1.048 16.656 1.048C18.768 1.048 21.04 1.24 23.472 1.624C25.52 1.976 27.344 2.152 28.944 2.152C30.992 2.152 32.848 1.816 34.512 1.144C34.448 3.224 33.92 4.76 32.928 5.752C31.936 6.744 30.464 7.24 28.512 7.24C27.488 7.24 26.464 7.16 25.44 7C24.416 6.84 22.96 6.568 21.072 6.184L14.448 37H7.536L14.352 5.224ZM30.5974 49C29.0614 49 27.7814 48.6 26.7574 47.8C25.7334 47 25.2214 45.848 25.2214 44.344C25.2214 42.52 25.9574 41.048 27.4294 39.928C28.9014 38.84 30.7734 37.928 33.0454 37.192L33.6214 34.6C32.6934 35.624 31.7494 36.328 30.7894 36.712C29.8294 37.096 28.8534 37.288 27.8614 37.288C26.3254 37.288 25.0774 36.808 24.1174 35.848C23.1894 34.888 22.7254 33.448 22.7254 31.528C22.7254 30.728 22.8534 29.688 23.1094 28.408L26.3734 13H33.2854L29.8294 29.32C29.7334 29.704 29.6854 30.104 29.6854 30.52C29.6854 31.928 30.1654 32.632 31.1254 32.632C31.9574 32.632 32.6934 32.28 33.3334 31.576C33.9734 30.84 34.4854 29.88 34.8694 28.696L38.2294 13H45.1414L40.3894 35.272C41.9254 34.76 43.1574 33.992 44.0854 32.968C45.0134 31.944 45.7974 30.424 46.4374 28.408H48.4534C47.5894 31.256 46.4214 33.352 44.9494 34.696C43.4774 36.008 41.8134 36.904 39.9574 37.384L39.2374 40.84C38.5974 43.944 37.4934 46.072 35.9254 47.224C34.3574 48.408 32.5814 49 30.5974 49ZM29.4934 45.256C30.0374 45.256 30.5654 44.888 31.0774 44.152C31.5894 43.416 31.9894 42.36 32.2774 40.984L32.5654 39.592C29.4294 40.744 27.8614 42.104 27.8614 43.672C27.8614 44.088 28.0054 44.456 28.2934 44.776C28.5814 45.096 28.9814 45.256 29.4934 45.256ZM51.2051 37.288C49.6691 37.288 48.4211 36.808 47.4611 35.848C46.5331 34.888 46.0691 33.448 46.0691 31.528C46.0691 30.728 46.1971 29.688 46.4531 28.408L51.5891 4.36L58.6931 3.4L53.1731 29.32C53.0451 29.8 52.9811 30.312 52.9811 30.856C52.9811 31.496 53.1251 31.96 53.4131 32.248C53.7331 32.504 54.2451 32.632 54.9491 32.632C55.8771 32.632 56.7411 32.248 57.5411 31.48C58.3411 30.68 58.9171 29.656 59.2691 28.408H61.2851C60.1011 31.864 58.5811 34.216 56.7251 35.464C54.8691 36.68 53.0291 37.288 51.2051 37.288ZM66.114 37.288C63.746 37.288 61.906 36.68 60.594 35.464C59.282 34.216 58.626 32.28 58.626 29.656C58.626 27.448 59.058 25.016 59.922 22.36C60.786 19.704 62.194 17.416 64.146 15.496C66.098 13.544 68.578 12.568 71.586 12.568C75.106 12.568 76.866 14.104 76.866 17.176C76.866 18.968 76.354 20.616 75.33 22.12C74.306 23.624 72.946 24.84 71.25 25.768C69.554 26.664 67.746 27.176 65.826 27.304C65.762 28.264 65.73 28.904 65.73 29.224C65.73 30.792 66.002 31.864 66.546 32.44C67.09 32.984 67.97 33.256 69.186 33.256C70.914 33.256 72.386 32.856 73.602 32.056C74.85 31.256 76.21 30.04 77.682 28.408H79.314C75.762 34.328 71.362 37.288 66.114 37.288ZM66.21 25C67.394 24.936 68.514 24.52 69.57 23.752C70.658 22.984 71.522 22.008 72.162 20.824C72.834 19.64 73.17 18.392 73.17 17.08C73.17 15.768 72.77 15.112 71.97 15.112C70.818 15.112 69.682 16.12 68.562 18.136C67.474 20.152 66.69 22.44 66.21 25ZM80.9359 13H87.8479L87.2239 15.976C88.3119 15.016 89.2879 14.28 90.1519 13.768C91.0479 13.256 92.0079 13 93.0319 13C94.0559 13 94.8559 13.352 95.4319 14.056C96.0399 14.76 96.3439 15.608 96.3439 16.6C96.3439 17.528 96.0399 18.344 95.4319 19.048C94.8239 19.752 93.9759 20.104 92.8879 20.104C92.1839 20.104 91.7039 19.944 91.4479 19.624C91.2239 19.272 91.0479 18.776 90.9199 18.136C90.8239 17.72 90.7279 17.416 90.6319 17.224C90.5359 17.032 90.3599 16.936 90.1039 16.936C89.4319 16.936 88.8559 17.08 88.3759 17.368C87.9279 17.624 87.3359 18.088 86.5999 18.76L82.7599 37H75.8479L80.9359 13ZM117.885 37.864C115.869 37.864 114.093 37.512 112.557 36.808C111.021 36.104 109.837 35.128 109.005 33.88C108.173 32.6 107.757 31.128 107.757 29.464C107.757 28.056 108.045 26.776 108.621 25.624C109.229 24.472 110.029 23.56 111.021 22.888C112.045 22.216 113.165 21.88 114.381 21.88C115.501 21.88 116.445 22.168 117.213 22.744C117.981 23.288 118.461 24.056 118.653 25.048C116.989 25.048 115.661 25.496 114.669 26.392C113.677 27.256 113.181 28.44 113.181 29.944C113.181 31.32 113.597 32.424 114.429 33.256C115.261 34.088 116.365 34.504 117.741 34.504C119.437 34.504 120.829 33.944 121.917 32.824C123.037 31.672 123.597 30.232 123.597 28.504C123.597 27 123.181 25.576 122.349 24.232C121.517 22.888 120.269 21.256 118.605 19.336C116.877 17.352 115.565 15.656 114.669 14.248C113.805 12.808 113.373 11.24 113.373 9.544C113.373 7.88 113.837 6.392 114.765 5.08C115.693 3.736 116.973 2.68 118.605 1.912C120.237 1.144 122.077 0.759997 124.125 0.759997C126.717 0.759997 128.781 1.368 130.317 2.584C131.885 3.8 132.669 5.432 132.669 7.48C132.669 8.824 132.333 9.912 131.661 10.744C130.989 11.576 130.109 11.992 129.021 11.992C127.805 11.992 126.829 11.496 126.093 10.504C126.701 10.056 127.181 9.464 127.533 8.728C127.885 7.992 128.061 7.224 128.061 6.424C128.061 5.4 127.757 4.584 127.149 3.976C126.541 3.368 125.709 3.064 124.653 3.064C123.373 3.064 122.317 3.528 121.485 4.456C120.685 5.352 120.285 6.504 120.285 7.912C120.285 9.192 120.653 10.392 121.389 11.512C122.125 12.6 123.277 14.008 124.845 15.736C126.125 17.112 127.149 18.296 127.917 19.288C128.717 20.28 129.389 21.432 129.933 22.744C130.509 24.024 130.797 25.416 130.797 26.92C130.797 28.968 130.221 30.824 129.069 32.488C127.949 34.152 126.397 35.464 124.413 36.424C122.461 37.384 120.285 37.864 117.885 37.864ZM138.252 37.288C136.716 37.288 135.468 36.808 134.508 35.848C133.58 34.888 133.116 33.448 133.116 31.528C133.116 30.728 133.244 29.688 133.5 28.408L136.764 13H143.676L140.22 29.32C140.124 29.8 140.076 30.248 140.076 30.664C140.076 31.976 140.556 32.632 141.516 32.632C142.412 32.632 143.18 32.264 143.82 31.528C144.46 30.76 144.972 29.72 145.356 28.408L148.62 13H155.532L152.076 29.32C151.948 29.8 151.884 30.312 151.884 30.856C151.884 31.496 152.028 31.96 152.316 32.248C152.636 32.504 153.148 32.632 153.852 32.632C154.748 32.632 155.516 32.248 156.156 31.48C156.828 30.712 157.356 29.688 157.74 28.408H159.756C158.572 31.864 157.1 34.216 155.34 35.464C153.612 36.68 151.868 37.288 150.108 37.288C148.732 37.288 147.628 36.904 146.796 36.136C145.996 35.368 145.516 34.232 145.356 32.728C144.268 34.488 143.116 35.688 141.9 36.328C140.716 36.968 139.5 37.288 138.252 37.288ZM162.486 37.288C160.95 37.288 159.702 36.808 158.742 35.848C157.814 34.888 157.35 33.448 157.35 31.528C157.35 30.728 157.478 29.688 157.734 28.408L160.614 14.92H159.03L159.414 13H160.998L162.438 6.376L169.542 5.416L167.91 13H170.79L170.406 14.92H167.526L164.454 29.32C164.326 29.8 164.262 30.312 164.262 30.856C164.262 31.496 164.406 31.96 164.694 32.248C165.014 32.504 165.526 32.632 166.23 32.632C167.158 32.632 168.022 32.248 168.822 31.48C169.622 30.68 170.198 29.656 170.55 28.408H172.566C171.382 31.864 169.862 34.216 168.006 35.464C166.15 36.68 164.31 37.288 162.486 37.288ZM175.283 37.288C173.747 37.288 172.499 36.808 171.539 35.848C170.611 34.888 170.147 33.448 170.147 31.528C170.147 30.728 170.275 29.688 170.531 28.408L173.411 14.92H171.827L172.211 13H173.795L175.235 6.376L182.339 5.416L180.707 13H183.587L183.203 14.92H180.323L177.251 29.32C177.123 29.8 177.059 30.312 177.059 30.856C177.059 31.496 177.203 31.96 177.491 32.248C177.811 32.504 178.323 32.632 179.027 32.632C179.955 32.632 180.819 32.248 181.619 31.48C182.419 30.68 182.995 29.656 183.347 28.408H185.363C184.179 31.864 182.659 34.216 180.803 35.464C178.947 36.68 177.107 37.288 175.283 37.288ZM190.336 37.192C187.968 37.192 186.096 36.584 184.72 35.368C183.344 34.152 182.656 32.232 182.656 29.608C182.656 27.432 183.104 25.016 184 22.36C184.896 19.704 186.336 17.416 188.32 15.496C190.304 13.544 192.8 12.568 195.808 12.568C199.904 12.568 201.952 15.128 201.952 20.248V20.296C202.048 20.328 202.224 20.344 202.48 20.344C203.536 20.344 204.752 20.072 206.128 19.528C207.504 18.952 208.752 18.264 209.872 17.464L210.304 18.76C209.376 19.752 208.16 20.6 206.656 21.304C205.184 21.976 203.568 22.456 201.808 22.744C201.552 25.656 200.896 28.2 199.84 30.376C198.784 32.552 197.424 34.232 195.76 35.416C194.096 36.6 192.288 37.192 190.336 37.192ZM192.256 32.872C193.024 32.872 193.792 32.44 194.56 31.576C195.328 30.68 196 29.48 196.576 27.976C197.152 26.44 197.568 24.744 197.824 22.888C196.96 22.696 196.528 22.024 196.528 20.872C196.528 19.56 197.024 18.696 198.016 18.28C197.952 17.224 197.792 16.504 197.536 16.12C197.28 15.704 196.832 15.496 196.192 15.496C195.136 15.496 194.112 16.264 193.12 17.8C192.128 19.336 191.328 21.176 190.72 23.32C190.112 25.464 189.808 27.352 189.808 28.984C189.808 30.52 189.984 31.56 190.336 32.104C190.688 32.616 191.328 32.872 192.256 32.872ZM220.934 37.288C219.238 37.288 218.006 36.776 217.238 35.752C216.47 34.728 216.086 33.432 216.086 31.864C216.086 31.192 216.166 30.44 216.326 29.608C216.486 28.744 216.646 27.912 216.806 27.112C216.998 26.312 217.126 25.8 217.19 25.576C217.446 24.456 217.686 23.352 217.91 22.264C218.134 21.176 218.246 20.296 218.246 19.624C218.246 17.992 217.67 17.176 216.518 17.176C215.686 17.176 214.95 17.592 214.31 18.424C213.67 19.224 213.158 20.28 212.774 21.592L209.51 37H202.598L207.686 13H214.598L214.07 15.496C215.67 13.704 217.542 12.808 219.686 12.808C221.318 12.808 222.614 13.256 223.574 14.152C224.534 15.048 225.014 16.408 225.014 18.232C225.014 19.16 224.902 20.2 224.678 21.352C224.454 22.472 224.134 23.848 223.718 25.48C223.462 26.472 223.222 27.448 222.998 28.408C222.806 29.336 222.71 30.072 222.71 30.616C222.71 31.256 222.854 31.752 223.142 32.104C223.43 32.456 223.926 32.632 224.63 32.632C225.398 32.632 225.926 32.536 226.214 32.344C226.022 33.976 225.43 35.208 224.438 36.04C223.478 36.872 222.31 37.288 220.934 37.288Z" fill="black"/>
</svg>
